<?xml version="1.0" standalone="no"?>
<!DOCTYPE svg PUBLIC "-//W3C//DTD SVG 20010904//EN"
 "http://www.w3.org/TR/2001/REC-SVG-20010904/DTD/svg10.dtd">
<svg version="1.0" xmlns="http://www.w3.org/2000/svg"
 width="676.000000pt" height="602.000000pt" viewBox="0 0 676.000000 602.000000"
 preserveAspectRatio="xMidYMid meet">
<metadata>
Created by potrace 1.16, written by Peter Selinger 2001-2019
</metadata>
<g transform="translate(0.000000,602.000000) scale(0.100000,-0.100000)"
fill="#000000" stroke="none">
<path d="M3473 5750 l-351 -5 -229 -225 c-126 -124 -239 -239 -251 -257 l-22
-31 95 -7 c52 -4 166 -6 254 -3 l158 4 7 -181 c7 -174 7 -180 -13 -193 -11 -8
-29 -22 -40 -31 -20 -18 -22 -17 -78 35 -32 30 -101 89 -153 132 -52 42 -130
114 -172 159 l-78 81 -60 -64 c-83 -90 -90 -103 -97 -181 -7 -90 4 -111 126
-233 93 -94 155 -135 223 -149 l29 -6 -49 -70 c-27 -39 -87 -106 -133 -150
-47 -44 -118 -125 -158 -180 -40 -55 -106 -134 -146 -175 -40 -41 -113 -122
-164 -180 -51 -58 -144 -153 -208 -212 l-116 -107 1 -1355 c0 -746 -4 -1358
-8 -1361 -10 -6 -26 14 -49 57 -30 59 -393 460 -464 512 l-39 30 6 70 c3 39 6
521 7 1071 l1 999 -39 30 c-21 17 -74 64 -118 106 -44 41 -96 89 -115 105
l-35 30 27 -30 c28 -32 58 -104 58 -143 0 -14 13 -37 31 -53 17 -16 28 -33 25
-38 -3 -5 11 -15 31 -23 34 -14 28 -15 -139 -22 -96 -4 -190 -11 -209 -15
l-34 -8 -1 274 c-1 182 -5 278 -12 285 -8 8 -30 -6 -79 -49 -37 -33 -117 -98
-178 -145 -116 -90 -318 -277 -336 -310 -14 -26 13 -66 123 -188 l82 -92 71 4
c62 3 80 8 142 45 39 24 96 66 126 95 l56 53 6 -90 c3 -49 5 -600 3 -1223 l-3
-1132 33 0 c28 0 49 -14 130 -89 53 -49 120 -106 147 -127 28 -20 73 -58 100
-84 28 -26 79 -69 115 -97 60 -47 344 -343 438 -457 l39 -47 334 2 c184 2 431
3 549 3 l215 1 94 90 c83 81 172 182 300 344 25 31 115 126 201 211 103 102
168 175 189 212 32 56 206 258 223 258 10 0 11 -66 12 -650 1 -409 3 -475 15
-472 8 2 319 5 690 7 372 2 678 4 681 4 9 1 504 -2 940 -6 l435 -3 -126 122
c-69 68 -191 191 -270 274 l-144 152 -539 -1 -539 -1 -1 535 -1 535 -72 79
c-39 44 -96 110 -125 146 -139 174 -268 309 -292 309 -3 0 -6 -116 -6 -257 0
-286 -9 -483 -21 -483 -5 0 -33 37 -63 82 -92 140 -165 227 -318 383 -81 83
-170 178 -198 213 -29 34 -53 62 -55 62 -2 0 -21 -26 -42 -57 -21 -32 -86
-107 -144 -168 -107 -112 -140 -158 -132 -183 11 -31 -57 20 -107 80 -28 35
-97 109 -152 165 -87 89 -99 105 -88 119 12 13 10 14 -13 9 -18 -5 -27 -3 -27
5 0 21 -21 -2 -65 -69 -24 -36 -55 -77 -69 -90 -14 -14 -26 -29 -26 -35 0 -6
-15 -29 -33 -52 -36 -45 -115 -117 -103 -94 6 12 5 12 -6 -1 -147 -175 -369
-391 -385 -375 -10 9 30 67 142 206 127 158 143 175 314 358 121 128 245 230
257 211 4 -8 64 -10 183 -9 97 2 562 0 1033 -3 l858 -7 4 23 c3 12 7 137 11
277 3 140 8 272 11 293 l6 37 -313 -2 c-173 -1 -286 -4 -251 -7 34 -3 62 -9
62 -13 0 -5 0 -17 0 -28 0 -13 -7 -20 -20 -20 -13 0 -20 -7 -20 -20 0 -13 7
-20 20 -20 13 0 20 -7 20 -20 0 -15 -7 -20 -25 -20 -20 0 -25 -5 -25 -27 0
-15 10 -37 22 -50 12 -13 17 -23 12 -23 -5 0 -56 59 -114 130 -58 71 -110 130
-116 130 -16 0 -440 426 -564 565 -108 122 -239 256 -371 379 l-74 70 33 8
c19 5 172 8 341 6 l308 -3 36 67 c47 86 155 209 218 248 46 28 49 32 49 72 0
38 -4 45 -29 56 -34 15 -519 457 -573 523 l-37 44 57 12 c31 7 109 12 173 13
l116 0 44 61 c24 34 75 89 112 123 l68 62 -28 24 c-15 14 -22 18 -15 9 10 -14
9 -18 -5 -23 -10 -4 -179 -4 -375 0 -328 6 -359 9 -374 25 -15 17 -15 19 0 25
9 3 16 12 16 20 0 8 6 14 14 14 8 0 18 9 21 20 3 11 15 20 26 20 10 0 19 5 19
10 0 6 29 10 66 10 60 0 68 3 94 30 15 17 33 30 40 30 6 0 18 7 26 15 9 8 27
18 42 22 15 3 39 19 54 35 24 26 57 40 44 19 -4 -5 2 -8 11 -7 11 2 20 -5 23
-16 3 -11 9 -19 14 -18 5 1 12 -2 15 -7 4 -4 24 -24 46 -43 21 -19 2 7 -44 58
-82 90 -113 120 -96 91 5 -8 4 -11 -1 -6 -5 5 -9 12 -10 15 0 4 -35 43 -77 86
l-77 80 -63 0 c-34 1 -220 -1 -414 -4z m-42 -2155 c131 -133 199 -210 225
-255 21 -36 74 -109 118 -163 45 -54 93 -114 109 -134 32 -42 37 -97 9 -112
-9 -5 -168 -10 -360 -10 l-342 -2 0 229 c0 126 -3 339 -6 473 l-6 244 33 -40
c18 -22 117 -125 220 -230z m897 -681 c160 -5 212 -10 212 -20 0 -6 -24 -32
-52 -55 -129 -106 -190 -166 -219 -212 l-31 -50 -59 59 c-75 74 -206 224 -233
266 l-20 31 95 -6 c52 -4 190 -10 307 -13z m-853 -389 c-127 -123 -232 -220
-234 -214 -1 6 5 17 15 25 18 14 18 14 0 7 -13 -4 -17 -3 -12 5 5 8 2 10 -8 6
-11 -4 -16 0 -17 12 0 18 -1 17 -9 -1 -5 -12 -8 36 -7 125 0 80 2 118 4 85 1
-33 5 -79 9 -102 l5 -43 43 0 c44 0 109 22 131 43 6 7 38 35 71 62 32 28 97
87 144 132 47 46 87 83 90 83 3 0 -99 -101 -225 -225z m1064 -1482 c1 -160 -3
-294 -8 -297 -11 -7 -66 44 -157 144 -106 116 -135 154 -104 135 5 -3 7 0 4 8
-7 20 46 87 154 193 l92 91 1 69 2 69 7 -60 c4 -33 8 -191 9 -352z"/>
<path d="M5555 2271 c-132 -3 -245 -9 -252 -14 -9 -6 246 -267 454 -464 33
-32 29 -43 -19 -43 -87 -1 -178 -20 -221 -47 -23 -14 -70 -53 -104 -85 l-61
-60 -7 -76 c-3 -43 -8 -96 -11 -119 l-5 -43 84 0 85 0 59 79 c63 85 252 287
292 312 18 12 23 20 17 35 -9 22 -9 124 0 367 l7 167 -39 -2 c-22 -1 -147 -4
-279 -7z"/>
</g>
</svg>
